<?xml version="1.0" encoding="UTF-8" standalone="no"?>
<!-- Created with Inkscape (http://www.inkscape.org/) -->

<svg
   width="109.12292mm"
   height="61.201366mm"
   viewBox="0 0 109.12292 61.201366"
   version="1.1"
   id="svg5"
   xml:space="preserve"
   sodipodi:docname="about.svg"
   inkscape:version="1.2.2 (732a01da63, 2022-12-09)"
   xmlns:inkscape="http://www.inkscape.org/namespaces/inkscape"
   xmlns:sodipodi="http://sodipodi.sourceforge.net/DTD/sodipodi-0.dtd"
   xmlns="http://www.w3.org/2000/svg"
   xmlns:svg="http://www.w3.org/2000/svg"><sodipodi:namedview
     id="namedview7"
     pagecolor="#ffffff"
     bordercolor="#000000"
     borderopacity="0.25"
     inkscape:showpageshadow="2"
     inkscape:pageopacity="0.0"
     inkscape:pagecheckerboard="0"
     inkscape:deskcolor="#d1d1d1"
     inkscape:document-units="mm"
     showgrid="false"
     inkscape:zoom="1.1893044"
     inkscape:cx="210.62732"
     inkscape:cy="105.52387"
     inkscape:window-width="1024"
     inkscape:window-height="706"
     inkscape:window-x="-6"
     inkscape:window-y="-6"
     inkscape:window-maximized="1"
     inkscape:current-layer="svg5" /><defs
     id="defs2"><rect
       x="38.051514"
       y="285.38635"
       width="763.40851"
       height="373.38049"
       id="rect176" /><rect
       x="38.051514"
       y="285.38635"
       width="763.40851"
       height="373.38049"
       id="rect5629" /><rect
       x="38.051514"
       y="285.38635"
       width="763.40851"
       height="373.38049"
       id="rect5629-1" /></defs><g
     inkscape:groupmode="layer"
     id="layer4"
     inkscape:label="Layer 4"
     transform="translate(44.277752,27.37011)"><path
       id="path12071-6"
       style="color:#000000;fill:#020003;fill-opacity:1;-inkscape-stroke:none"
       d="m 62.472135,-21.018354 -30.224628,16.083987 -0.712891,3.447265 -3.265625,15.781249 6.673828,-1.4043 -2.544922,17.46094 24.378918,1.3418 0.94922,-24.595704 7.11914,-2.021485 z m -17.257831,13.578127 -20.486329,1.388672 -0.02734,0.689453 -9.453125,0.392578 -0.22461,6.962891 -0.517578,16.04688 2.783203,7.82812 8.816407,4.12695 2.287109,-0.48828 0.238281,0.19531 0.347656,-0.32031 11.779297,-2.51562 z m -47.605469,1.214844 1.625,12.462891 -2.634766,4.062499 2.998047,1.97461 -0.333984,5.53906 4.667968,9.66992 9.927735,2.01954 7.945312,-1.9375 5.691407,-9.73829 L 27.011179,4.258992 19.501413,-4.66093 6.81196,-5.44218 4.647897,-2.106242 Z m -6.546875,-4.46875 0.359375,4.484375 h -6.564453 l 0.443359,7.917969 1.591797,28.566406 16.763672,-0.75391 8.884765,-6.79492 -0.199218,-11.96679 -0.257813,-0.2129 L 11.823679,-1.319133 6.444772,-3.748821 6.065866,-6.209758 H 0.9936 Z m -17.359375,-0.05078 -6.564454,35.634761 29.082032,0.59766 -1.193359,-8.69922 L -6.397025,6.41329 -17.16265,6.21993 Z m 7.388672,-11.962894 -3.148438,11.021486 -6.433594,-2.824219 -11.882813,48.341797 22.212892,-4.55664 0.15039,-0.52539 0.457031,1.41211 20.142579,-0.77539 -3.642579,-9.72461 -9.919921,-26.482423 -3.251954,-1.427735 z m 6.59375,37.582034 -0.492188,14.99219 4.798828,0.15625 0.490235,-14.99219 z m 2.453125,-18.414063 -14.048828,5.255859 8.652343,23.125004 14.048828,-5.25586 z m 2.882812,0.130859 -14.488281,3.882813 6.302734,23.523441 14.488282,-3.88282 z m -2.828125,-0.509765 -14.001953,5.384765 9.046875,23.517574 14,-5.38476 z m 0.38086,0.654296 -14.134766,5.019532 8.101562,22.810551 14.134766,-5.01954 z m 2.412109,0.3125 -14.488281,3.882813 6.179687,23.06641 14.490235,-3.88282 z" /></g><g
     inkscape:groupmode="layer"
     id="layer3"
     inkscape:label="Layer 3"
     transform="translate(-1.2298729,-0.56842542)"><path
       id="path12071"
       style="color:#000000;fill:#ac00ff;fill-opacity:1;-inkscape-stroke:none"
       d="m 104.07558,2.2578784 -30.224613,16.0839846 -0.712891,3.447265 -3.265625,15.781249 6.673828,-1.4043 -2.544922,17.46094 24.378907,1.3418 0.949218,-24.595704 7.119138,-2.021485 z m -17.257816,13.5781246 -20.486329,1.388672 -0.02734,0.689453 -9.453125,0.392578 -0.22461,6.962891 -0.517578,16.04688 2.783203,7.82812 8.816407,4.12695 2.287109,-0.48828 0.238281,0.19531 0.347656,-0.32031 11.779297,-2.51562 z m -47.605469,1.214844 1.625,12.462891 -2.634766,4.062499 2.998047,1.97461 -0.333984,5.53906 4.667968,9.66992 9.927735,2.01954 7.945312,-1.9375 5.691407,-9.73829 L 68.614639,27.535222 61.104873,18.6153 48.41542,17.83405 46.251357,21.169988 Z m -6.546875,-4.46875 0.359375,4.484375 h -6.564453 l 0.443359,7.917969 1.591797,28.566406 16.763672,-0.75391 8.884765,-6.79492 -0.199218,-11.96679 -0.257813,-0.2129 -0.259765,-11.86523 -5.378907,-2.429688 -0.378906,-2.460937 H 42.59706 Z M 15.306045,12.531316 8.7415917,48.166077 37.823623,48.763737 36.630264,40.064517 35.206435,29.689519 24.44081,29.496159 Z M 22.694717,0.56842542 19.546279,11.589909 13.112685,8.7656914 1.2298729,57.107487 l 22.2128911,-4.55664 0.15039,-0.52539 0.457031,1.41211 20.142579,-0.77539 -3.642579,-9.72461 -9.919921,-26.482423 -3.251954,-1.427735 z m 6.59375,37.58203158 -0.492188,14.99219 4.798828,0.15625 0.490235,-14.99219 z m 2.453125,-18.414063 -14.048828,5.255859 8.652343,23.125004 14.048828,-5.25586 z m 2.882812,0.130859 -14.488281,3.882813 6.302734,23.523441 14.488282,-3.88282 z m -2.828125,-0.509765 -14.001953,5.384765 9.046875,23.517574 14,-5.38476 z m 0.38086,0.654296 -14.134766,5.019532 8.101562,22.810551 14.134766,-5.01954 z m 2.412109,0.3125 -14.488281,3.882813 6.179687,23.06641 14.490235,-3.88282 z" /></g><g
     inkscape:groupmode="layer"
     id="layer2"
     inkscape:label="Layer 2"
     transform="translate(-1.2298729,-0.56842542)"><path
       id="path11804"
       style="color:#000000;fill:#f035ca;fill-opacity:1;-inkscape-stroke:none"
       d="m 28.554092,42.962957 -0.16211,4.99805 4.796875,0.1582 0.164063,-4.99805 z m -1.994141,-21.994141 -4.667969,1.794922 9.044922,23.517579 4.667969,-1.79492 z m -9.482422,6.271484 -2.921875,15.863277 17.34961,0.35547 -0.398438,-2.89843 -0.841797,-6.13282 -9.408203,-0.16992 z m 33.375,-4.419922 -3.173828,4.894531 -2.359375,-1.380859 0.544922,4.175781 -0.933594,1.439453 1.226563,0.808594 0.02734,0.201172 -0.417968,6.947267 3.023437,6.26367 6.402344,1.30274 4.798828,-1.16993 3.890625,-6.65429 -0.371094,-10.396488 -5.021484,-5.960938 z m 3.689453,9.087891 1.587891,4.554688 -1.041016,3.34961 -0.330078,0.0137 -0.927734,-2.05078 0.320312,-4.30859 z m -24.916015,-10.931641 -4.830078,1.294922 6.302734,23.523437 4.830078,-1.29492 z m -2.330078,0.525391 -4.710938,1.671875 8.101563,22.810543 4.710937,-1.67382 z M 80.50331,21.0528 l -9.921875,0.673828 -0.675781,17.251949 -0.583984,0.53516 0.599609,-16.955078 -8.792969,0.367188 -0.07422,2.320312 -0.486328,15.101568 1.765625,4.9707 5.404296,2.52734 9.550782,-2.03711 z m -64.523437,-5.501953 -8.576172,34.88477 11.494141,-2.35743 3.826172,-13.38867 4.347656,13.42188 9.439453,-0.36328 -1.212891,-3.24219 -9.179687,-24.505861 -3.376953,-1.482422 -0.31836,-0.980469 -0.21289,0.748047 z m 3.435547,6.96875 1.408203,0.617187 -5.900391,20.652343 -0.777344,0.16016 z m 7.072265,-1.214844 -4.68164,1.751953 8.652344,23.125001 4.68164,-1.75195 z m 11.267579,-0.863281 0.115234,1.441406 h -6.691406 l 0.146484,2.638672 1.316406,23.628907 10.25586,-0.46094 5.636718,-4.31054 -0.11914,-7.13477 -0.832031,-0.68555 0.568359,-0.33984 -0.224609,-10.185548 -4.978516,-2.248047 -0.138672,-0.902344 h -1.861328 z m 2.640625,19.337895 0.08203,0.19336 h -0.08008 z m 58.8125,-29.753911 -21.50586,11.44336 -0.238281,1.148437 -1.716797,8.302735 6.210938,-1.306641 -2.789063,19.13867 13.841797,0.76172 0.892578,-23.142578 6.621089,-1.880859 z m -4.296875,7.949219 0.257812,2.839844 -6.123047,1.738281 -0.835937,21.689457 -3.304688,-0.18164 3.03125,-20.816411 -4.841797,1.019532 z m -65.720704,3.460938 -4.830078,1.292968 6.181641,23.066406 4.828125,-1.29492 z" /></g><g
     inkscape:label="Layer 1"
     inkscape:groupmode="layer"
     id="layer1"
     transform="translate(-1.2298729,-0.56842542)"><path
       id="path460"
       style="fill:#11c000;fill-opacity:1;stroke:#000000;stroke-width:0.264583"
       d="m 31.236377,45.147767 a 0.01047672,0.01047672 0 0 1 -0.01048,0.0105 0.01047672,0.01047672 0 0 1 -0.01048,-0.0105 0.01047672,0.01047672 0 0 1 0.01048,-0.0105 0.01047672,0.01047672 0 0 1 0.01048,0.0105 z" /><path
       style="fill:#11c000;fill-opacity:1;stroke-width:0.264583"
       d="M 32.956303,45.147777 26.775785,22.081768"
       id="path610" /><path
       style="fill:#11c000;fill-opacity:1;stroke-width:0.264583"
       d="M 32.641684,45.147777 24.540254,22.337921"
       id="path666" /><path
       style="fill:#11c000;fill-opacity:1;stroke-width:0.264583"
       d="M 33.270922,45.383737 24.225636,21.865995"
       id="path670" /><path
       style="fill:#11c000;fill-opacity:1;stroke-width:0.264583"
       d="M 33.113611,45.147777 26.810499,21.624234"
       id="path674" /><path
       style="fill:#11c000;fill-opacity:1;stroke-width:0.264583"
       d="M 32.798992,45.305087 24.146981,22.180613"
       id="path676" /><path
       style="fill:#11c000;fill-opacity:1;stroke-width:0.264583"
       d="m 28.472987,45.462397 4.797935,0.1573"
       id="path682" /><path
       style="fill:#11c000;fill-opacity:1;stroke-width:0.264583"
       d="m 32.956303,45.383737 -8.809322,-23.517742 -6.449682,-2.831569 -6.921611,28.158371 6.135064,-1.25848 5.663136,-19.820972 6.292373,19.427702 z"
       id="path694" /><path
       style="fill:#11c000;fill-opacity:1;stroke-width:0.264583"
       d="m 28.630297,40.900417 -11.483581,-0.23596 1.101165,-5.97775 1.101166,2.04502 8.730667,0.15731 z"
       id="path696" /><path
       style="fill:#11c000;fill-opacity:1;stroke-width:0.264583"
       d="m 33.821504,24.382944 1.179819,21.158103 7.000267,-0.31462 4.011387,-3.06753 -0.07866,-4.71928 -2.674258,-2.20233 2.359639,-1.41579 -0.157311,-7.15757 -4.876588,-2.202328 0.314619,3.932733 1.966367,3.067531 -1.258474,3.146184 -3.539461,-0.55058 0.07865,2.83157 3.775424,0.0786 1.494438,3.53946 -1.809056,1.96637 h -3.696769 l -0.07866,-14.00053 h 3.460806 l -0.629237,-4.090043 z"
       id="path698" /><path
       style="fill:#11c000;fill-opacity:1;stroke-width:0.264583"
       d="m 48.293961,32.877646 -0.393272,6.528341 2.202328,4.56197 4.640628,0.94385 3.224839,-0.78654 2.988877,-5.11256 -0.314619,-8.809319 -3.775422,-4.483314 -5.112554,-0.314619 -3.775424,5.820445 3.224842,2.123677 0.707893,-2.83157 0.865201,-1.651749 3.224839,0.786548 2.359642,6.764301 -1.809057,5.82044 -3.775424,0.15731 -1.887713,-4.16869 0.393274,-5.269866 -3.224842,-1.887712 z"
       id="path704" /><path
       style="fill:#11c000;fill-opacity:1;stroke-width:0.264583"
       d="m 63.552965,25.3268 -0.471926,14.629767 1.258474,3.53946 3.696769,1.7304 7.000264,-1.49444 2.595605,-19.97828 -4.640625,0.314618 -0.629237,16.045552 -2.988879,2.75291 -2.595602,-2.12367 0.550582,-15.573628 z"
       id="path706" /><path
       style="fill:#11c000;fill-opacity:1;stroke-width:0.264583"
       d="m 79.913134,23.124469 -0.943856,4.56197 5.977755,-1.258475 -2.910223,19.978283 8.57336,0.47193 0.8652,-22.416578 6.371027,-1.809059 -0.786546,-8.652013 z"
       id="path708" /></g></svg>
