<?xml version="1.0" encoding="UTF-8" standalone="no"?>
<!-- Created with Inkscape (http://www.inkscape.org/) -->

<svg
   width="89.777351mm"
   height="42.031258mm"
   viewBox="0 0 89.777351 42.031258"
   version="1.1"
   id="svg26104"
   xml:space="preserve"
   inkscape:version="1.2.2 (732a01da63, 2022-12-09)"
   sodipodi:docname="contact.svg"
   xmlns:inkscape="http://www.inkscape.org/namespaces/inkscape"
   xmlns:sodipodi="http://sodipodi.sourceforge.net/DTD/sodipodi-0.dtd"
   xmlns="http://www.w3.org/2000/svg"
   xmlns:svg="http://www.w3.org/2000/svg"><sodipodi:namedview
     id="namedview26106"
     pagecolor="#ffffff"
     bordercolor="#000000"
     borderopacity="0.25"
     inkscape:showpageshadow="2"
     inkscape:pageopacity="0.0"
     inkscape:pagecheckerboard="0"
     inkscape:deskcolor="#d1d1d1"
     inkscape:document-units="mm"
     showgrid="false"
     inkscape:zoom="0.84096521"
     inkscape:cx="48.158948"
     inkscape:cy="54.104498"
     inkscape:window-width="1024"
     inkscape:window-height="706"
     inkscape:window-x="-6"
     inkscape:window-y="-6"
     inkscape:window-maximized="1"
     inkscape:current-layer="layer6" /><defs
     id="defs26101" /><g
     inkscape:groupmode="layer"
     id="layer6"
     inkscape:label="Layer 3"
     transform="translate(-27.257767,-62.90625)"><path
       style="color:#000000;fill:#039000;fill-opacity:1;-inkscape-stroke:none"
       d="m 51.837891,62.90625 -0.511719,7.648437 -0.388672,5.796875 -12.046875,-0.669921 -0.369141,1.373046 c -0.01406,-0.0012 -0.02499,-0.0027 -0.03906,-0.0039 -1.585108,-0.138438 -3.136756,-0.277173 -3.138672,-0.277344 h -0.002 l -4.583985,-0.410156 -3.5,20.205078 12.095704,8.333985 2.947265,-3.18359 -1.460937,-0.5332 5.880859,2.06445 3.322266,-0.79102 4.630859,-0.12109 5.378906,-0.14258 1.421875,2.74219 7.15625,-2.56641 -0.0039,0.32032 9.46875,1.02734 0.230469,-1.11719 0.652344,0.0469 7.007812,0.5 1.166016,-3.556647 1.24414,3.656257 7.642578,-1.40625 1.417969,1.08008 3.468748,-0.85743 -0.13281,2.57032 13.0957,-5.406258 -0.34765,-9.078125 3.49414,0.490234 -1.14453,-12.568359 -16.943363,-2.84375 -0.0332,0.607421 -0.662109,-0.191406 -5.910156,2.822266 -2.003906,-4.957031 -1.357422,0.398437 -2.001953,-5.873047 -2.316407,7.066406 -12.964843,0.07813 -0.04883,-0.783203 -12.042968,0.802735 z m 3.964843,15.634766 c 0.0015,0.0024 1.77462,2.813284 3.308594,5.24414 l 4.59375,-1.648437 c -0.07434,-0.585025 -0.271484,-2.173828 -0.271484,-2.173828 v -0.0039 -0.0039 l 3.533203,-0.234375 0.0293,0.486328 L 83,80.113281 l 0.09766,0.736328 2.695313,-0.792968 1.607422,-0.472657 1.52539,3.773438 4.814453,-1.074219 0.05664,1.029297 4.894531,-2.335938 4.880861,1.410157 0.0703,-1.300782 7.61719,1.279297 0.22265,2.447266 -3.16797,-0.443359 0.44336,11.566406 -2.55859,1.05664 0.0723,-1.40039 -7.691399,1.90039 -1.273437,-0.966796 -5.56836,1.023437 -1.740234,-5.119141 -5.744141,-0.04297 -1.802734,5.496093 -3.113281,-0.222656 5.140625,-14.58789 -3.628907,0.0918 -3.654297,0.0957 -2.710937,13.197265 4.15625,1.154297 -4.330078,-0.310547 -0.197266,0.957031 -0.425781,-0.04687 0.203125,-14.953125 -6.691406,0.103516 0.755859,12.027344 -0.0098,-0.101563 -1.578125,1.732422 -0.910156,-4 h -2.74414 l 0.07617,0.816406 1.523438,-0.541015 c -0.04924,0.0238 -0.109628,0.05387 -0.111328,0.05469 l 0.421875,1.013672 -0.248047,-1.089844 0.07031,-0.02539 1.681641,4.037109 -0.197266,0.214844 0.191407,0.458984 -2.21875,0.794922 -1.666016,-3.210937 -4.71875,1.220703 0.01367,0.496094 -2.984375,0.07813 0.07422,-1.107422 -7.628907,1.816406 -0.302734,-0.105469 2.898438,-8.863281 -1.978516,-7.904297 3.548828,0.197266 -0.335937,-1.207032 4.904296,-0.5 z m -13.136718,2.359375 4.101562,0.226562 -2.501953,4.498047 -0.894531,1.607422 2.449218,10.404297 -3.298828,-1.158203 -1.632812,-0.595704 -2.263672,2.445313 -5.894531,-4.060547 2.167968,-12.513672 c 0,0 1.556728,0.13833 3.148438,0.277344 0.764218,0.06674 1.525527,0.134075 2.138672,0.185547 l 2.082031,0.173828 z m 55.52539,2.800781 -0.595703,2.152344 -0.851562,3.076171 0.779296,4.447266 5.837893,-0.05469 3.0293,-0.02734 0.43554,-8.220703 -5.75976,-0.916016 h -0.006 z m 5.125004,4.621094 -1.22071,0.01172 0.002,-0.002 z"
       id="path28343" /></g><g
     inkscape:groupmode="layer"
     id="layer5"
     inkscape:label="Layer 2"
     transform="translate(-27.257767,-62.90625)"><path
       style="color:#000000;fill:#073c00;fill-opacity:1;-inkscape-stroke:none"
       d="m 54.238281,70.865234 -0.58789,8.773438 -0.144532,-0.521485 -12.308593,-0.683593 -0.384766,1.433593 c -0.606926,-0.05095 -1.365293,-0.116902 -2.128906,-0.183593 -1.5889,-0.138769 -3.144532,-0.277344 -3.144532,-0.277344 l -2.292968,-0.205078 -2.833985,16.359375 8.996094,6.197263 2.605469,-2.814451 0.08594,0.03125 5.175782,1.816411 5.041015,-1.199223 -0.03125,0.460933 2.742188,-0.07226 5.492187,-0.144532 -0.08398,-3 2.671875,5.152342 7.996094,-2.867185 -0.826172,-13.158203 1.498047,-0.02344 -0.199219,14.654298 4.947265,0.53711 0.212891,-1.03711 2.839844,0.20313 5.060547,0.36132 1.841797,-5.615232 2.142578,0.01563 1.865234,5.482422 6.605469,-1.214844 1.345703,1.023434 5.580083,-1.378903 -0.10352,1.986323 7.82813,-3.232417 -0.39649,-10.322265 3.33203,0.466797 -0.68359,-7.507813 -12.28125,-2.060547 -0.0508,0.953125 -2.771488,-0.800781 -7.263672,3.466797 0.03516,0.642578 -2.375,-5.873047 -1.482422,0.435547 -0.361328,-1.060547 -0.423828,1.292969 -1.410156,0.414062 -0.0039,-0.0293 -15.839844,0.09375 -0.03906,-0.634765 -8.693359,0.580078 0.337891,2.634766 c 0,0 0.197958,1.583723 0.273437,2.177734 -1.534652,-2.431931 -3.310547,-5.246094 -3.310547,-5.246094 z m 27.09375,14.941407 -3.980469,11.296875 2.3125,-11.253907 z m 19.091799,0.857421 0.83398,0.132813 v 0.0039 h 0.0293 l 3.3418,0.53125 -0.19141,3.626953 -0.67969,0.0059 L 100.03906,91 99.722656,89.195312 Z m -53.554689,0.31836 0.537109,2.146484 -0.369141,1.128906 -0.591797,-2.513671 z m 19.005859,8.679687 0.002,0.02148 -0.175781,0.0625 c 0.02599,-0.01248 0.122125,-0.05914 0.173828,-0.08398 z"
       id="path28219" /></g><g
     inkscape:label="Layer 1"
     inkscape:groupmode="layer"
     id="layer1"
     transform="translate(-27.257767,-62.90625)"><path
       style="fill:#edc212;fill-opacity:1;stroke:none;stroke-width:15"
       d="m 37.875342,84.871913 2.614012,0.278088 c 0,0 1.001109,-2.725245 0.723024,-2.725245 -0.278088,0 -6.507218,-0.556173 -6.507218,-0.556173 l -2.169073,12.513879 5.895427,4.06006 2.780864,-3.003333 -0.667406,-1.835367 -3.2258,0.111234 -1.724136,-4.894318 z"
       id="path26226" /><path
       style="fill:#edc212;fill-opacity:1;stroke:none;stroke-width:15"
       d="m 42.316206,96.587923 4.483317,1.573093 4.955244,-1.179819 1.101164,-8.730668 -1.887712,-6.764301 -8.494702,-0.471929 -2.280986,8.494705 3.224842,-2.595605 1.494438,-2.674258 3.224842,-0.07865 1.258472,5.033899 -1.57309,4.797933 -2.988879,0.393274 -1.573094,-6.685645 -2.831568,1.573093 z"
       id="path26762" /><path
       style="fill:#edc212;fill-opacity:1;stroke:none;stroke-width:15"
       d="m 54.350369,97.453123 2.988879,-0.07866 -0.314619,-11.404925 6.685645,12.899366 4.168698,-1.494441 -1.101166,-17.539988 -3.539459,0.235963 c 0,0 1.730402,13.528603 1.573094,13.213985 C 64.65413,92.969809 55.608844,78.65466 55.608844,78.65466 Z"
       id="path26764" /><path
       style="fill:#edc212;fill-opacity:1;stroke:none;stroke-width:15"
       d="m 69.294755,80.306409 -0.865201,3.146184 5.269863,-0.07865 -0.235964,17.225367 3.539459,-17.225367 6.05641,-0.157311 -0.314619,-2.988876 z"
       id="path26766" /><path
       style="fill:#edc212;fill-opacity:1;stroke:none;stroke-width:15"
       d="m 79.143338,97.775113 3.114566,0.22247 4.616231,-14.071163 4.671848,13.73746 2.725245,-0.500555 -7.06339,-17.463815 -1.890985,0.556173 z"
       id="path26768" /><path
       style="fill:#edc212;fill-opacity:1;stroke:none;stroke-width:15"
       d="m 90.433638,92.547092 -7.730797,-0.05562 0.667406,-3.003333 6.896539,0.556172 z"
       id="path26770" /><path
       style="fill:#edc212;fill-opacity:1;stroke:none;stroke-width:15"
       d="m 103.16999,93.436968 -0.0556,3.003333 -4.727466,1.167961 -4.171294,-3.170182 -0.611788,-11.012215 4.894316,-2.335924 4.616232,1.334815 -0.22247,2.169072 -4.894317,-0.778642 -1.446049,5.228021 0.778643,4.449379 z"
       id="path26772" /><path
       style="fill:#edc212;fill-opacity:1;stroke:none;stroke-width:15"
       d="m 103.44807,81.201177 -0.16685,3.114564 3.39265,0.05562 -0.6674,12.736348 2.55839,-1.056727 -0.44494,-11.568388 3.17018,0.44494 -0.22247,-2.447161 z"
       id="path26774" /></g></svg>
